# xmcd
# 
# Track frame offsets:
#     150
#     18519
#     35647
#     54209
#     68790
#     93237
#     114564
#     140637
#     158996
#     181143
# 
# Disc length: 2669
# 
# Revision: 0
# Processed by: cddbd v1.5.2PL0 Copyright (c) Steve Scherf et al.
# Submitted via: fre:ac v1.0.27
# 
DISCID=810a6b0a
DTITLE=Farin Urlaub Racing Team - Livealbum Of Death - Volume 2
DYEAR=2006
DGENRE=Rock
TTITLE0=Lieber Staat
TTITLE1=Porzellan
TTITLE2=Zehn
TTITLE3=Der ziemlich okaye Popsong
TTITLE4=OK - Kein Zurück
TTITLE5=Unter Wasser
TTITLE6=Immer noch
TTITLE7=Dusche
TTITLE8=Wo ist das Problem?
TTITLE9=Abschiedslied
EXTD=
EXTT0=
EXTT1=
EXTT2=
EXTT3=
EXTT4=
EXTT5=
EXTT6=
EXTT7=
EXTT8=
EXTT9=
PLAYORDER=
